<?xml version="1.0" standalone="no"?>
<!DOCTYPE svg PUBLIC "-//W3C//DTD SVG 20010904//EN"
 "http://www.w3.org/TR/2001/REC-SVG-20010904/DTD/svg10.dtd">
<svg version="1.0" xmlns="http://www.w3.org/2000/svg"
 width="500.000000pt" height="500.000000pt" viewBox="0 0 500.000000 500.000000"
 preserveAspectRatio="xMidYMid meet">
<metadata>
Created by potrace 1.14, written by Peter Selinger 2001-2017
</metadata>
<g transform="translate(0.000000,500.000000) scale(0.100000,-0.100000)"
fill="#000000" stroke="none">
<path d="M2452 4913 c-29 -83 -146 -423 -197 -578 -32 -94 -274 -803 -336
-985 -27 -80 -52 -152 -54 -160 -2 -8 -52 -154 -110 -325 -146 -427 -280 -820
-320 -940 -19 -55 -82 -239 -140 -410 -59 -170 -126 -368 -150 -440 -24 -71
-80 -238 -126 -370 -45 -132 -116 -342 -159 -467 l-77 -228 31 -1 c255 -7 819
-3 825 6 5 5 25 57 44 115 52 155 199 587 247 725 23 66 43 125 44 130 2 6 6
17 9 25 5 15 18 52 143 420 34 102 119 352 189 555 69 204 138 407 153 452 15
46 29 83 32 83 3 0 31 -78 62 -173 31 -95 125 -372 208 -617 83 -245 171 -503
195 -575 24 -71 110 -323 190 -560 81 -237 158 -465 172 -508 14 -42 28 -78
32 -78 22 -5 861 -3 861 2 0 6 -13 44 -120 349 -39 113 -98 284 -131 380 -33
96 -64 184 -69 195 -5 11 -32 88 -60 170 -28 83 -67 194 -86 248 -82 233 -104
297 -134 382 -18 50 -33 95 -34 100 -2 6 -8 23 -14 38 -7 16 -12 31 -12 34 0
3 -15 49 -34 102 -19 53 -89 254 -156 446 -67 193 -135 386 -150 430 -34 94
-162 461 -230 660 -27 77 -76 219 -110 315 -34 96 -69 195 -77 220 -8 25 -18
54 -23 65 -5 11 -34 94 -65 185 -32 91 -89 255 -127 365 -39 110 -78 224 -88
253 l-17 54 -31 -89z"/>
<path d="M2447 1257 c-10 -34 -97 -327 -194 -650 -96 -323 -173 -590 -170
-593 3 -3 183 -7 400 -9 l396 -4 -14 47 c-8 26 -35 112 -60 192 -25 80 -47
152 -49 160 -3 12 -52 170 -150 485 -9 28 -41 131 -71 229 -31 98 -59 185 -63
192 -4 8 -14 -11 -25 -49z"/>
</g>
</svg>
